<?xml version="1.0" encoding="UTF-8"?><svg id="Layer_1" xmlns="http://www.w3.org/2000/svg" viewBox="0 0 750 750"><defs><style>.cls-1{fill:#00dfbc;opacity:.25;}</style></defs><polygon id="_Heel_" class="cls-1" points="91.28001 278.36929 89.68004 279.82381 88.51642 282.44195 87.20735 285.20554 86.33464 287.24187 85.31647 289.13275 84.48478 291.40406 83.56978 296.20778 83.19946 301.25072 82.46594 306.24787 82.07649 310.32136 81.47057 315.33392 80.69941 319.24483 80.3428 322.52344 79.55618 327.14482 78.42542 332.25783 77.43282 335.25386 76.48938 339.22978 75.77009 342.29904 75.14942 346.14947 74.55874 348.25959 74.09887 350.36529 73.44538 353.31812 73.08232 355.2302 73.08232 357.34188 72.48118 359.30405 72.48118 361.26622 71.37213 361.26622 71.37213 366.29961 71.35174 373.28904 73.22622 372.76778 75.60887 369.71501 77.73092 367.29513 82.07178 361.06144 85.52005 355.58688 89.1487 352.3552 91.47158 350.14036 97.08415 347.57999 99.58195 345.55114 101.56855 344.88895 103.88624 344.33711 106.86613 343.67492 109.95639 343.12308 113.04665 342.35052 116.24728 341.35722 120.33083 340.36393 123.57175 338.09427 127.35836 336.27824 131.37679 333.30306 134.4679 331.33248 136.39152 329.24965 136.51254 328.28149 134.668 329.25364 132.41051 329.3087 130.42292 329.23057 129.42868 329.23057 129.35221 328.38929 128.30915 327.35276 127.37978 326.26114 125.36975 326.26114 125.38094 325.25948 123.41437 325.21851 123.43485 324.29668 122.45157 324.25571 122.10878 323.2898 121.25204 323.21202 121.3137 322.21009 120.33083 322.21009 120.33083 321.29626 119.37523 321.28277 119.33455 320.30687 118.38968 320.25962 118.38225 319.24886 117.44187 319.20512 115.43886 319.19689 115.32417 318.27935 113.43173 318.27935 113.31704 315.29733 110.33502 315.29733 110.26531 313.20593 108.45276 313.27564 108.37383 309.10184 107.31927 309.16775 107.31927 307.25637 105.27608 307.19046 105.21017 304.29045 104.35335 304.35636 104.28744 303.3018 103.2988 303.16998 103.2988 300.26997 102.17834 300.20406 102.25304 296.31968 101.35664 296.31968 101.43134 294.15339 100.35212 294.22 100.30693 291.3725 98.40251 291.3063 98.33855 289.25957 97.37914 289.25957 97.37914 287.34075 96.35578 287.21283 96.22785 285.23005 95.46033 285.23005 95.33241 283.31124 93.4016 283.30989 93.43681 281.26977 92.31063 281.26977 92.46079 280.21867 91.28001 278.36929"/></svg>