<?xml version="1.0" encoding="UTF-8"?><svg id="Layer_1" xmlns="http://www.w3.org/2000/svg" viewBox="0 0 750 750"><defs><style>.cls-1{fill:#e9006f;opacity:.25;}</style></defs>
<polygon id="lining" class="cls-1" points="347.3805 284.23765 349.42661 284.18102 349.49639 278.21479 348.43845 278.21479 348.43845 277.37112 347.3805 277.37112 345.46582 277.37112 345.46582 276.26783 343.40409 276.26783 343.40409 275.28089 340.36793 275.28089 340.36793 274.31381 339.0758 274.31381 337.84689 275.10074 335.81953 275.78735 334.20549 277.13238 334.06176 277.28162 335.37765 277.28162 335.37165 278.28304 338.36973 278.30999 338.43916 279.31679 339.37653 279.31679 339.40128 281.24679 340.37426 281.24679 340.36743 282.26666 343.33987 282.29581 343.39815 283.25748 347.33226 283.28662 347.3805 284.23765"/>
<polygon id="lining-2" class="cls-1" points="317.3308 270.23708 320.4149 267.25385 322.56317 265.26933 322.56317 263.27691 321.39246 263.27691 321.38035 262.28436 318.37678 262.28436 318.37678 261.28487 315.3346 261.28487 315.3346 260.30154 313.46012 260.30154 313.46012 259.28694 310.38396 259.28694 310.38396 258.28005 298.33949 258.28005 297.37997 259.24579 294.35844 259.26987 294.35844 260.32137 291.33536 260.29946 291.33536 261.21953 290.39339 261.21953 290.39339 262.27096 289.4012 262.27096 289.4012 263.23793 287.37192 263.26517 287.37192 264.25856 285.2659 264.25856 285.2659 265.26933 283.3597 265.26933 283.3597 266.23432 279.35351 266.28373 279.38036 267.26929 278.37919 267.26929 278.37919 268.28093 277.37806 268.27885 277.37806 269.27651 276.38001 269.2751 276.38001 270.28863 275.38621 270.28863 275.38621 271.278 274.38506 271.278 274.38506 272.27914 273.38391 272.27914 273.38391 273.28671 272.38239 273.28671 272.38239 274.27745 271.36765 274.27745 271.36765 276.27342 270.3812 276.27342 270.3812 277.27893 269.38363 277.27893 269.38199 278.27577 268.38323 278.27577 268.38323 279.27404 267.37472 279.27404 267.37472 280.33445 266.38817 280.33445 266.38817 281.24679 265.40162 281.24679 265.40162 283.2941 264.3961 283.2941 264.3961 284.29962 263.39057 284.29962 263.39057 285.30514 262.38435 285.30514 262.38435 286.2711 261.37644 286.2711 261.37644 287.27901 260.37678 287.27901 260.37678 289.27832 259.37713 289.27832 259.37713 290.2772 258.37919 290.2772 258.37919 291.27155 257.38145 291.27155 257.38145 292.27451 256.38186 292.27451 256.38186 293.27468 255.38057 293.27468 255.38057 295.2751 254.38097 295.2751 254.38097 296.27276 253.3833 296.27276 253.3833 297.27043 252.37868 297.27384 252.37868 298.27328 251.38206 298.27328 251.38206 299.27272 250.38208 299.27506 250.38208 300.27787 249.38569 300.27787 249.38569 301.27577 248.38533 301.27577 248.38533 302.27685 247.3858 302.27685 247.3858 303.27396 246.38587 303.27396 246.38587 304.27552 245.3847 304.27552 245.3847 305.27196 243.37987 305.27625 243.3804 306.2736 242.37839 306.2736 242.37839 307.26978 240.37437 307.26978 240.37437 308.27179 239.37236 308.27179 239.37236 309.2738 237.37416 309.2738 237.37416 310.26999 235.37597 310.26999 235.37597 311.26617 234.37712 311.26617 234.37712 312.27428 232.38154 312.27428 232.38154 313.27534 230.38086 313.27534 230.38086 314.27517 228.3837 314.27517 228.3837 315.27452 225.38659 315.27452 225.38659 316.27039 223.38728 316.27039 223.38728 317.27004 221.38797 317.27004 221.38797 318.27388 219.38519 318.27388 219.38519 319.27708 216.38192 319.27665 216.38192 320.27763 213.37864 320.27763 213.37864 321.27734 211.37414 321.27734 211.37414 322.28124 207.37882 322.28124 207.37882 323.2743 203.38036 323.2743 203.38036 324.27557 198.37685 324.27465 197.37776 325.27667 185.37543 325.27685 184.37795 324.27485 178.37982 324.27046 178.37982 323.26746 173.37594 323.26746 173.37594 322.26446 169.37508 322.26446 169.37508 321.28374 165.38053 321.29472 165.38053 320.28477 162.37941 320.27882 162.37941 319.28008 159.37502 319.27636 159.37502 318.28082 157.37437 318.27125 157.37437 317.28529 155.37353 317.27985 155.37353 316.27877 153.37136 316.27877 153.37136 315.27768 151.37723 315.27372 151.37723 314.27528 149.37983 314.27611 149.37983 313.27771 147.38302 313.27771 147.38302 312.27232 145.39104 312.28063 145.39104 311.28711 144.34945 311.28711 144.34945 310.27757 143.37196 310.27757 142.36241 309.28406 141.36689 309.28355 141.36689 308.28276 140.3661 308.28276 140.3661 307.27982 139.37877 307.27748 138.37685 306.27864 137.37525 306.27864 137.37525 305.27704 136.37783 305.27285 136.37783 304.27546 135.38106 304.27566 135.38106 303.27477 134.37668 303.27477 134.37668 302.27724 133.37101 301.27774 133.37905 300.27415 132.37779 300.27859 132.37779 299.27632 131.37394 299.27958 131.37394 298.27967 130.37847 298.27632 130.37847 297.27402 129.37391 297.27402 129.37391 295.2759 128.37821 295.2758 128.37821 294.27814 127.37923 294.27774 127.37923 293.28064 126.38147 293.28064 126.38147 291.27566 125.38148 291.27898 125.38148 290.2743 124.37915 290.27141 124.37915 289.27013 123.37787 289.2756 123.37787 287.2764 122.37427 287.27999 122.37427 286.2841 121.37484 286.2841 121.37484 285.26862 120.38163 285.27137 120.38163 284.27867 119.37992 284.28134 119.37992 283.28698 118.37086 282.2697 118.37086 281.27828 117.38204 281.2879 117.38204 280.27569 116.37702 280.27832 116.37702 279.27598 115.37972 279.27399 115.37972 278.27208 114.38067 278.27561 114.38067 277.27722 113.37954 277.27448 113.37954 276.27882 112.37652 276.27642 111.3821 275.2718 110.37389 274.28127 109.37787 274.27764 109.37787 273.27725 108.37989 273.27484 108.37989 272.27686 106.37918 272.275 106.37918 271.27605 105.37953 271.27602 105.37953 270.28007 103.37933 270.27887 103.37933 269.27697 101.38024 269.27627 101.38024 268.27457 94.38158 268.27457 94.38158 269.27488 92.377 269.27488 92.377 270.2791 90.37554 270.27731 90.38187 272.27687 90.37554 276.27822 90.37554 278.27826 91.28001 278.36929 92.46079 280.21867 92.31063 281.26977 93.43681 281.26977 93.4016 283.30989 95.33241 283.31124 95.46033 285.23005 96.22785 285.23005 96.35578 287.21283 97.37914 287.34075 97.37914 289.25957 98.33855 289.25957 98.40251 291.3063 100.30693 291.3725 100.35212 294.22 101.43134 294.15339 101.35664 296.31968 102.25304 296.31968 102.17834 300.20406 103.2988 300.26997 103.2988 303.16998 104.28744 303.3018 104.35335 304.35636 105.21017 304.29045 105.27608 307.19046 107.31927 307.25637 107.31927 309.16775 108.37383 309.10184 108.45276 313.27564 110.26531 313.20593 110.33502 315.29733 113.31704 315.29733 113.43173 318.27935 115.32417 318.27935 115.43886 319.19689 117.44187 319.20512 118.38225 319.24886 118.38968 320.25962 119.33455 320.30687 119.37523 321.28277 120.33083 321.29626 120.33083 322.21009 121.3137 322.21009 121.25204 323.21202 122.10878 323.2898 122.45157 324.25571 123.43485 324.29668 123.41437 325.21851 125.38094 325.25948 125.36975 326.26114 127.37978 326.26114 128.30915 327.35276 129.35221 328.38929 129.42868 329.23057 132.41051 329.3087 134.668 329.25364 136.51254 328.28149 138.20682 328.28149 138.20682 329.24965 138.39894 330.25473 139.24205 331.22754 140.47428 332.26521 143.29734 333.46949 143.39845 336.1489 148.25172 336.35112 148.40338 337.21055 153.3072 337.36221 153.40831 338.32276 159.17783 339.2807 159.17783 340.2763 165.21362 340.2763 165.27584 341.27189 174.29842 341.27189 174.48509 342.20526 193.25356 342.28498 193.25356 341.35617 202.29403 341.10849 202.29403 340.30351 206.31889 340.11775 206.31889 339.43662 209.2911 339.18893 209.35302 338.26012 212.63641 338.20302 215.4035 337.29329 217.26086 336.42147 218.9666 335.39802 221.27882 334.22296 227.49528 331.19054 229.54217 329.90176 232.46088 328.30974 234.43195 327.09677 237.31275 324.93617 239.1322 323.38205 240.19355 322.85138 241.29281 322.21009 242.31625 321.37307 243.45341 320.19801 245.46239 319.13666 246.33421 318.30274 247.47137 317.12768 253.4604 311.21446 254.59756 310.19101 256.07586 308.71271 257.51627 307.1965 258.42599 306.17305 259.33572 305.26333 260.43497 304.12617 261.42051 303.10273 262.36814 301.85185 263.66234 300.35226 265.3619 298.32587 267.05876 296.26797 268.4307 294.24617 270.40332 291.73929 272.74582 289.37625 274.34858 287.28033 275.5126 285.30814 276.5005 284.06413 277.26886 283.29576 277.96405 282.23468 278.47629 281.24679 278.39888 280.28082 279.38461 279.281 279.37037 278.28476 281.37532 278.2769 281.37532 277.27626 282.37513 277.27626 282.37527 276.2777 283.3743 276.27402 283.3811 275.27167 284.3808 275.27167 284.37749 274.27255 285.38022 274.27345 285.37688 273.2753 286.38171 273.2753 286.36391 270.26816 288.37892 270.26816 288.37892 269.26942 290.40031 269.27134 290.36941 268.26703 291.37372 268.25158 291.35827 267.29363 292.41744 267.29363 292.41744 266.25615 298.38292 266.25615 298.37042 265.26933 306.33151 265.26933 306.36066 266.28944 309.42099 266.28944 309.39185 267.25979 313.35671 267.25979 314.37618 268.24607 315.39522 268.24607 315.38621 269.31452 316.42851 269.31452 317.3308 270.23708"/></svg>