<?xml version="1.0" encoding="UTF-8"?><svg id="Layer_1" xmlns="http://www.w3.org/2000/svg" viewBox="0 0 1920 1080"><defs><style>.cls-1{fill:#0081c6;opacity:.25;}</style></defs><polygon id="_Swoosh_" class="cls-1" points="682.08415 565.77429 683.57473 566.60239 685.39655 567.76173 686.88713 568.75545 695.81918 572.62558 725.36133 582.78734 756.65704 591.77001 783.66371 599.45295 816.6007 608.03286 852.26702 616.26355 879.91369 621.96172 901.22907 624.70528 909.03767 625.7605 927.60948 626.60467 939.21686 626.60467 948.36822 626.18259 958.24763 624.3107 968.02304 620.04695 975.82257 612.14343 978.49409 606.32681 979.42862 603.25618 979.87196 599.78724 979.87196 596.80684 979.87196 593.91411 979.66454 591.54383 979.26723 589.4698 978.57192 587.57066 977.59434 585.32848 976.77693 583.52404 975.66205 581.53665 974.45023 579.59773 973.26237 577.52804 972.28793 576.15496 971.13631 574.38324 969.81503 572.43003 968.29849 570.61019 966.68085 568.73979 964.80344 566.64407 962.83738 564.66752 960.49062 562.55858 958.75763 561.148 957.25381 560.0286 955.48877 558.68717 953.58253 557.34574 951.53509 555.86311 949.55824 554.38048 947.652 552.96845 945.88696 551.62702 943.62771 549.86198 941.74176 548.57769 939.38006 546.98355 936.78219 545.33036 934.30241 543.85429 932.41305 542.73249 930.46464 541.72876 929.04762 541.02025 927.8255 540.4044 928.99649 543.15463 929.35326 544.34355 929.6231 545.4229 929.89294 546.50225 930.36907 548.84611 930.61653 550.23186 931.06195 552.35997 931.39367 554.25081 931.75459 555.62229 932.04332 557.06595 932.22923 558.21969 932.37032 559.34839 932.46438 560.71224 932.46438 561.74688 932.45129 562.87092 932.41829 564.12523 932.38528 565.34654 932.26501 566.54925 932.02446 567.87224 931.48062 570.50814 930.36102 573.86692 929.24143 576.47931 927.46006 579.84761 925.67316 582.27268 923.631 584.31484 921.33356 586.22937 918.01505 588.01627 914.44126 589.4698 911.12274 590.82424 907.54895 591.71769 903.84753 591.97296 900.52901 592.1006 897.5934 592.1006 894.53015 591.97296 890.44583 591.84533 886.48913 591.59006 868.00209 589.4698 848.22986 586.44571 830.97806 583.50453 813.0151 580.23983 795.27273 576.66921 777.16459 573.0986 752.68035 567.99771 731.48766 562.86252 713.38758 558.6686 709.41439 558.55823 707.42779 558.55823 705.33083 558.55823 701.24728 559.55153 698.04665 560.54482 694.95639 561.31739 691.86613 561.86922 688.88624 562.53142 686.56855 563.08325 684.58195 563.74545 682.08415 565.77429"/></svg>