<?xml version="1.0" encoding="UTF-8"?><svg id="Layer_1" xmlns="http://www.w3.org/2000/svg" viewBox="0 0 1920 1080"><defs><style>.cls-1{fill:#d0b300;opacity:.25;}</style></defs><polygon id="_Tip_" class="cls-1" points="1026.45936 587.41788 1026.45936 589.4698 1026.22044 591.00166 1025.17796 593.89745 1023.90381 596.56157 1021.58718 599.80486 1019.73388 602.23732 1017.64891 604.43812 1014.17397 608.14472 1011.59694 610.40275 1008.10561 613.2869 1004.31069 616.32284 999.90857 619.73827 994.82338 623.38139 991.55974 626.60467 987.46122 629.90866 983.36271 633.70359 979.87196 637.27081 976.38005 640.91394 973.09009 644.34098 970.48555 648.04217 966.92143 652.84002 964.04272 658.46036 961.84942 663.66945 959.65235 668.01916 957.96504 672.4942 957.36093 675.6278 972.37429 678.46303 974.34347 678.96376 988.73415 681.06695 1000.66235 682.9389 1018.68695 685.36484 1030.11062 686.76875 1041.61756 688.09573 1051.14727 689.07239 1062.37313 690.13584 1067.65828 690.66876 1071.74214 690.83717 1096.70807 690.83717 1124.46425 690.34191 1156.75658 689.06536 1186.41952 686.62555 1212.49628 684.13844 1234.73939 681.99364 1255.97074 680.94742 1267.67797 679.8913 1271.54554 678.651 1274.22968 677.33018 1274.79069 676.72408 1274.37481 676.46406 1273.42656 676.49195 1273.37078 675.5437 1272.36675 675.48792 1272.39464 673.47985 1271.36271 673.45196 1271.36271 669.46372 1270.35868 669.46372 1270.33079 665.53125 1269.38254 665.53125 1269.35465 662.54704 1268.32272 662.46337 1268.38059 659.45411 1267.22318 659.45411 1267.3968 656.38698 1266.23939 656.44485 1266.23939 654.41938 1265.44602 653.45127 1265.35641 651.42011 1264.34083 651.42011 1264.34083 650.55388 1263.35512 650.49414 1263.35512 648.43311 1262.33954 648.46298 1260.22731 645.80002 1257.39815 643.46719 1256.27936 642.23267 1253.87765 640.75019 1251.3737 639.87925 1249.74069 639.77038 1249.41409 640.75019 1249.08749 642.16546 1247.56335 642.92754 1243.97072 643.90734 1239.52387 645.37255 1235.10548 646.53784 1214.23325 647.43153 1200.43823 647.92171 1184.54245 648.13179 1140.22175 647.38447 1116.07581 646.51466 1098.82136 645.33427 1090.67891 644.63452 1087.56188 644.12562 1082.09117 642.21723 1076.57545 637.46643 1071.42887 632.31984 1069.45314 629.49791 1069.22495 624.88844 1069.79642 618.27569 1070.79583 611.2798 1071.29554 606.03288 1071.70331 602.67074 1072.10907 600.61095 1071.53944 599.47169 1070.20081 598.50331 1067.18384 597.40311 1063.35931 595.83138 1060.16416 594.49059 1055.93644 592.76819 1052.02189 591.51553 1048.3987 590.45722 1045.35396 589.4698 1041.85575 588.57855 1038.87579 587.86595 1036.41409 587.41788 1033.69326 586.95901 1031.49068 586.50554 1029.54723 586.05207 1028.38116 586.05207 1027.34465 586.05207 1026.69684 586.57032 1026.45936 587.41788"/></svg>