<?xml version="1.0" encoding="UTF-8"?>
<svg id="Layer_2" data-name="Layer 2" xmlns="http://www.w3.org/2000/svg" viewBox="0 0 297.78781 86.20028">
  <defs>
    <style>
      .cls-1 {
        fill: #0081c6;
        opacity: .25;
      }
    </style>
  </defs>
  <g id="Layer_1-2" data-name="Layer 1">
    <polygon id="_Swoosh_" data-name="&amp;lt;Swoosh&amp;gt;" class="cls-1" points="0 25.3699 1.49058 26.198 3.3124 27.35734 4.80298 28.35106 13.73503 32.22119 43.27718 42.38295 74.57289 51.36562 101.57956 59.04855 134.51655 67.62847 170.18287 75.85915 197.82954 81.55732 219.14491 84.30089 226.95352 85.3561 245.52533 86.20028 257.13271 86.20028 266.28407 85.77819 276.16347 83.9063 285.93889 79.64256 293.73842 71.73903 296.40993 65.92241 297.34447 62.85179 297.78781 59.38284 297.78781 56.40245 297.78781 53.50971 297.58039 51.13944 297.18307 49.0654 296.48777 47.16627 295.51019 44.92408 294.69278 43.11964 293.5779 41.13225 292.36608 39.19334 291.17822 37.12365 290.20377 35.75057 289.05216 33.97885 287.73088 32.02564 286.21434 30.20579 284.5967 28.33539 282.71929 26.23967 280.75323 24.26312 278.40647 22.15418 276.67347 20.74361 275.16966 19.62421 273.40462 18.28278 271.49838 16.94135 269.45093 15.45871 267.47409 13.97608 265.56785 12.56405 263.80281 11.22262 261.54356 9.45758 259.65761 8.1733 257.29591 6.57915 254.69804 4.92596 252.21826 3.4499 250.3289 2.32809 248.38049 1.32437 246.96347 .61586 245.74135 0 246.91233 2.75024 247.26911 3.93916 247.53895 5.01851 247.80879 6.09785 248.28492 8.44172 248.53238 9.82746 248.97779 11.95557 249.30952 13.84641 249.67044 15.21789 249.95917 16.66155 250.14508 17.81529 250.28617 18.94399 250.38023 20.30784 250.38023 21.34248 250.36714 22.46652 250.33413 23.72084 250.30113 24.94214 250.18085 26.14486 249.94031 27.46784 249.39646 30.10374 248.27687 33.46253 247.15728 36.07491 245.37591 39.44321 243.58901 41.86828 241.54685 43.91045 239.24941 45.82498 235.9309 47.61187 232.35711 49.0654 229.03859 50.41985 225.4648 51.3133 221.76338 51.56857 218.44486 51.6962 215.50925 51.6962 212.446 51.56857 208.36167 51.44093 204.40498 51.18566 185.91794 49.0654 166.14571 46.04132 148.8939 43.10014 130.93095 39.83544 113.18858 36.26482 95.08044 32.6942 70.5962 27.59332 49.40351 22.45812 31.30342 18.2642 27.33023 18.15383 25.34364 18.15383 23.24668 18.15383 19.16312 19.14713 15.9625 20.14043 12.87224 20.91299 9.78198 21.46483 6.80209 22.12702 4.4844 22.67886 2.4978 23.34105 0 25.3699"/>
  </g>
</svg>