<?xml version="1.0" encoding="UTF-8"?>
<svg id="Layer_2" data-name="Layer 2" xmlns="http://www.w3.org/2000/svg" viewBox="0 0 637.04246 279.99356">
  <defs>
    <style>
      .cls-1 {
        fill: #00dfbc;
        stroke: #020202;
        stroke-miterlimit: 10;
        stroke-width: .25px;
      }

      .cls-1, .cls-2, .cls-3, .cls-4, .cls-5 {
        opacity: .25;
      }

      .cls-3 {
        fill: #d0b300;
      }

      .cls-4 {
        fill: #e9006f;
      }

      .cls-5 {
        fill: #0081c6;
      }
    </style>
  </defs>
  <g id="Layer_1-2" data-name="Layer 1">
    <polygon id="_Swoosh_" data-name="&amp;lt;Swoosh&amp;gt;" class="cls-5" points="37.71946 89.29994 39.21004 90.12804 41.03186 91.28738 42.52244 92.2811 51.45449 96.15123 80.99664 106.31299 112.29235 115.29566 139.29902 122.9786 172.23601 131.55851 207.90233 139.7892 235.549 145.48737 256.86438 148.23093 264.67298 149.28615 283.24479 150.13032 294.85217 150.13032 304.00353 149.70823 313.88294 147.83635 323.65835 143.5726 331.45788 135.66908 334.1294 129.85245 335.06393 126.78183 335.50727 123.31289 335.50727 120.33249 335.50727 117.43976 335.29985 115.06948 334.90254 112.99545 334.20723 111.09631 333.22965 108.85413 332.41224 107.04969 331.29736 105.0623 330.08554 103.12338 328.89768 101.05369 327.92324 99.68061 326.77162 97.90889 325.45034 95.95568 323.93381 94.13584 322.31617 92.26544 320.43875 90.16972 318.47269 88.19317 316.12593 86.08423 314.39294 84.67365 312.88912 83.55425 311.12408 82.21282 309.21784 80.87139 307.1704 79.38876 305.19355 77.90613 303.28731 76.4941 301.52227 75.15267 299.26302 73.38763 297.37707 72.10334 295.01537 70.5092 292.4175 68.85601 289.93772 67.37994 288.04836 66.25814 286.09995 65.25441 284.68293 64.5459 283.46081 63.93004 284.6318 66.68028 284.98857 67.8692 285.25841 68.94855 285.52825 70.0279 286.00438 72.37176 286.25184 73.75751 286.69726 75.88562 287.02898 77.77646 287.3899 79.14794 287.67863 80.5916 287.86454 81.74533 288.00563 82.87404 288.09969 84.23789 288.09969 85.27253 288.0866 86.39657 288.0536 87.65088 288.02059 88.87219 287.90032 90.0749 287.65977 91.39789 287.11593 94.03379 285.99633 97.39257 284.87674 100.00496 283.09537 103.37326 281.30847 105.79833 279.26631 107.84049 276.96887 109.75502 273.65036 111.54192 270.07657 112.99545 266.75805 114.34989 263.18426 115.24334 259.48284 115.49861 256.16432 115.62625 253.22871 115.62625 250.16546 115.49861 246.08114 115.37098 242.12444 115.11571 223.6374 112.99545 203.86517 109.97136 186.61337 107.03018 168.65041 103.76548 150.90804 100.19486 132.7999 96.62425 108.31567 91.52336 87.12297 86.38817 69.02289 82.19425 65.0497 82.08388 63.0631 82.08388 60.96614 82.08388 56.88259 83.07718 53.68196 84.07047 50.5917 84.84304 47.50144 85.39487 44.52155 86.05707 42.20386 86.6089 40.21727 87.2711 37.71946 89.29994"/>
    <polygon id="_Sole_" data-name="&amp;lt;Sole&amp;gt;" class="cls-2" points="8.31096 178.3846 11.55492 178.3846 14.50397 178.3846 18.04283 178.3846 21.25117 178.73238 24.04071 179.06446 26.56457 179.46297 28.88919 179.72864 30.88171 179.99431 32.54215 180.3264 34.33542 180.59207 35.79153 180.82222 36.89988 181.03189 38.09882 181.13926 39.11882 181.13926 40.37145 181.13926 41.28408 181.13926 54.18283 181.13926 58.76485 181.41478 63.14386 181.75163 66.12278 181.97505 69.16603 182.1257 72.11889 182.1257 80.30501 182.1257 81.53293 182.1257 83.87312 182.23517 86.06365 182.38551 89.16764 182.45495 91.15805 182.5325 93.34233 182.64882 97.50009 182.97488 102.16083 183.25565 109.64999 183.84303 118.11927 184.19668 157.28502 186.2429 167.84475 187.08933 169.29228 187.33572 170.58581 187.64371 172.74171 188.13648 179.51975 188.13648 184.86639 188.13648 198.06053 188.13648 200.62287 188.27756 202.7801 188.44856 209.24759 189.05754 214.23727 189.80366 219.27357 190.40988 223.23733 190.87621 227.99383 191.156 234.10268 191.156 235.53411 191.29198 236.81965 191.48481 238.20161 191.77406 240.93338 192.09545 244.5329 192.28828 247.67781 192.5365 252.92558 193.12553 259.03014 193.44683 263.51371 193.88073 265.30184 194.04006 266.80415 194.18735 268.69601 194.33558 270.74015 194.50064 272.86046 194.6403 275.31088 194.91962 278.04062 195.12277 280.59261 195.40209 282.52202 195.61647 284.12986 195.91124 286.72919 196.20601 289.56971 196.63476 291.55271 196.98313 293.35052 197.22946 294.96629 197.48947 296.60063 197.71233 298.49497 198.00949 300.03976 198.14309 301.99199 198.30246 304.94025 198.4419 307.94828 198.60127 310.91647 198.78055 311.97227 198.97976 312.99624 199.15345 314.06031 199.36074 315.02765 199.51275 316.0088 199.77531 317.45981 200.10697 318.45464 200.26783 319.93124 200.42553 321.95261 200.6119 323.04214 200.69791 323.98831 200.78393 324.90474 200.93362 325.94472 201.22 327.04498 201.56666 328.0096 201.98868 329.01389 202.28839 329.97878 202.48941 331.08438 202.63012 332.4111 202.73063 333.75793 202.85124 335.32195 203.07974 337.0128 203.28739 338.85197 203.55436 340.7208 203.88067 342.55996 204.23664 344.36946 204.5926 348.72219 205.20199 353.85842 206.07253 358.73347 206.85602 363.78264 207.46541 370.16919 208.23903 375.80557 209.12317 381.77351 210.00731 386.91749 210.37907 391.48934 210.68386 395.00642 211.16188 396.00201 211.3661 397.25287 211.62138 398.22293 211.87666 399.67801 212.02983 401.84788 212.02983 403.88476 212.25774 405.90564 212.51035 408.85275 212.80506 412.34718 213.05767 415.92582 213.39448 419.20974 213.8155 423.29359 214.19441 427.37745 214.36282 459.73271 214.36282 469.5113 214.14812 476.49888 213.9558 488.4536 213.66281 496.16161 213.24499 503.15892 212.87946 507.99551 212.72127 512.39189 212.59101 517.30932 212.29792 521.99879 212.03739 526.16722 211.71173 528.47939 211.32094 531.14978 210.99528 533.72248 210.89759 537.07675 210.66963 539.66222 210.51009 542.05483 210.1512 544.96583 209.67268 547.23881 209.1144 549.75105 208.79539 552.92585 208.65793 557.99443 208.45916 563.36116 207.96225 568.13159 207.66409 573.10079 207.26656 577.57306 206.76964 582.34349 206.27272 586.81577 205.87518 591.78496 205.37826 596.15786 205.08011 601.39484 204.78686 605.74279 204.60817 609.79293 204.54861 614.08133 204.36993 618.78664 203.953 623.31328 203.41695 626.52957 202.46398 628.55465 201.57056 629.86499 200.85583 630.426 200.24973 630.90692 200.50868 631.31385 200.95261 631.75777 201.43353 632.12771 201.91444 632.42366 202.39536 632.83059 203.02425 633.16353 203.65314 633.49647 204.20805 633.75543 204.87393 634.01438 205.42884 634.01438 209.96467 634.98852 209.98995 634.98852 210.93792 636.05499 210.97742 636.05499 227.88294 637.04246 227.88294 637.04246 232.8993 637.04246 242.89252 636.09449 242.89252 636.13398 249.80483 634.98852 250.00232 634.94902 250.8713 634.00104 250.8713 634.08004 254.97918 632.97407 254.97918 633.01357 256.87513 632.0261 256.87513 632.0656 257.9416 630.13015 257.9416 630.13015 258.92907 629.02418 258.92907 629.05241 260.87593 628.02995 260.87593 628.05679 262.00514 626.98294 262.00514 626.98294 262.94476 625.05001 262.94476 625.05001 263.93807 624.02985 263.93807 624.02985 264.98507 622.04323 264.98507 622.04128 265.99891 620.04149 265.99891 620.04149 266.99181 617.02085 266.99181 617.02085 267.98471 615.00708 267.98471 615.0143 268.93396 612.01711 268.93396 612.01711 269.98897 607.02978 269.98897 607.02978 270.97205 603.00155 270.97205 603.00155 271.97911 599.06924 271.97911 599.06924 273.01014 593.0226 273.01014 593.03517 273.96886 590.01731 273.96886 590.00474 273.00063 588.03055 273.00063 588.03055 273.96886 587.0246 273.96886 587.03717 274.98739 585.03784 274.98739 585.00012 273.98144 583.02593 274.00659 583.03851 274.98739 582.02549 274.98739 582.023 275.99637 567.01272 275.99637 567.0215 276.9795 551.00034 276.9795 551.00034 277.98804 531.97944 277.98804 531.97944 278.95567 525.01249 278.95567 525.01249 277.98804 524.01525 277.98993 524.01525 276.99668 523.00487 276.99668 523.01343 277.98993 522.01162 277.99849 522.01162 278.99175 510.01554 278.99175 510.01554 279.99356 505.01504 279.99356 505.01504 278.99175 490.01352 279.00031 490.01352 279.99356 482.0247 279.99356 482.0247 278.99175 479.01926 279.00031 479.0107 279.99356 472.01513 279.99356 472.01513 278.99175 468.01644 279.00887 468.025 279.99356 460.02761 279.99356 460.02439 278.99874 457.01165 278.99874 457.01165 279.99356 449.0072 279.99356 449.01226 278.98903 446.01577 278.99572 446.01788 279.99356 438.01786 279.99356 438.01574 278.99572 435.0161 278.99629 435.0161 279.99356 428.02676 279.99356 428.0122 278.99629 426.00277 278.98173 426.01733 276.98686 423.01774 277.00142 423.01774 278.99629 421.99846 278.99629 421.99846 279.99356 417.99415 279.99356 418.00872 278.99629 415.02369 278.99629 415.02369 276.98686 412.0241 277.00142 412.0241 278.98173 404.01548 278.99629 404.01548 278.00614 403.0119 278.0033 403.00435 276.99919 401.01122 276.99919 401.01122 277.99575 400.0071 277.9882 400.01464 278.99821 392.00972 279.01182 392.01437 277.0152 389.01226 277.00144 389.01226 279.00507 381.00944 278.99335 381.0153 275.99376 379.01167 275.99962 379.01636 276.99575 378.01483 276.99575 378.01659 277.99553 377.01159 277.99712 377.01853 278.99619 371.01535 278.99645 371.01535 277.99394 370.01284 277.99394 370.01612 276.99581 369.01524 276.99449 369.01428 275.98984 366.98984 276.00541 367.00541 277.00206 366.01371 276.99562 366.01769 277.98585 365.01552 277.99381 365.02347 278.97609 361.01216 278.99643 361.01714 277.99815 358.01408 277.99405 358.01716 275.99332 355.01798 275.99332 355.01798 277.99005 347.01731 277.99497 347.01366 276.99308 346.01827 276.99308 346.01452 275.99393 345.01161 275.99769 345.02288 276.99308 344.01998 276.99684 344.02093 277.99589 335.00858 277.9908 335.0187 275.98658 334.01658 275.9967 334.0105 276.99591 333.01127 276.99079 333.0164 277.99001 324.01315 278.00026 324.01315 276.00181 323.0088 275.99669 323.017 276.99388 321.01423 276.99763 321.01423 277.99338 313.01442 277.99714 313.01442 276.99388 312.01867 276.99763 312.01097 275.99618 311.01721 275.98847 311.01721 276.98993 307.01421 276.99796 307.02106 277.99532 302.01715 277.99189 302.01715 276.99453 300.01867 276.9993 300.01867 275.99484 299.01798 275.99108 299.01798 276.99177 298.01626 276.99473 298.01829 277.991 291.01752 277.99345 291.01752 276.99742 290.01452 276.99742 290.02149 275.99442 288.02247 275.99442 288.0155 276.99742 287.01947 276.99742 287.01669 277.99437 280.01568 277.99711 280.01509 276.99626 279.01539 276.99626 279.0119 275.99579 276.0154 275.99579 276.01629 276.99388 273.01368 276.99719 273.01919 277.99551 268.01522 277.99215 268.01565 276.99542 267.01306 276.99542 267.01383 275.99623 265.01395 275.99623 265.0181 276.99513 263.01568 276.99547 263.01753 277.99536 259.01672 277.99534 259.00913 276.9963 256.00932 276.9963 256.00946 275.99358 255.00884 275.99358 255.01457 274.99466 253.01809 274.99789 253.01762 276.99396 252.01371 276.99693 252.01603 277.99304 245.01743 278.0011 245.01572 276.99844 244.01418 276.99844 244.01588 274.99536 243.01611 274.99536 243.0186 275.99398 242.01532 275.99629 242.01763 276.99726 241.01435 276.99495 241.01666 277.99823 234.01549 277.9987 234.01476 276.99586 233.01393 276.99954 233.01519 276.00198 230.01435 275.99538 230.01912 276.99362 229.01372 276.99839 229.01543 277.99514 223.01429 277.99523 223.01535 276.99711 221.01304 276.99688 221.01664 275.99694 218.01265 275.99702 218.01885 277.99518 211.01559 277.99601 211.01403 276.99641 210.01296 276.99799 210.0081 276.00286 206.00805 276.00286 206.02254 278.00289 199.02244 278.00289 199.01791 277.00074 198.01602 277.00074 198.00823 274.99694 195.01013 274.99694 195.01958 277.99504 187.01833 278.0045 187.01833 276.00892 183.01771 275.99946 183.02717 277.99504 176.02844 278.0045 176.02844 277.00198 175.01646 277.00198 175.01646 275.0064 172.01459 274.99538 172.01459 276.99738 171.01358 276.99522 171.02225 277.99405 165.01484 277.99562 165.01409 276.99832 164.01463 276.99832 164.01483 275.99378 160.01349 275.998 160.01771 276.99264 152.0144 276.99689 152.01142 274.9904 149.00761 274.99789 149.0226 276.99793 147.01347 276.99634 147.0151 277.99746 142.01263 277.97552 142.01263 276.98819 141.01433 276.98819 141.01442 275.99069 140.01604 275.99495 140.01604 274.99829 139.01335 274.99829 139.01939 276.00099 138.01669 276.00099 138.01669 276.99765 129.01657 276.99765 129.01657 274.99829 127.02156 274.99952 127.02156 275.99462 126.01661 275.99462 126.02646 276.98972 118.0215 276.99948 118.01712 274.9946 115.01558 274.9946 115.01163 275.99775 114.01243 275.9938 114.01243 277.00089 107.01015 276.993 107.0141 275.9938 106.01095 275.99775 106.01095 274.99575 104.00696 274.99575 104.01444 275.99027 96.02837 275.99775 96.0209 274.99575 95.0189 275.00323 95.0189 274.00123 94.01818 273.99706 94.02171 274.99476 93.01255 274.9926 93.04795 275.97495 84.02093 275.99265 84.01208 274.0014 83.00318 274.0014 83.02088 275.00145 81.02077 275.00145 81.02962 275.99265 73.02921 276.0192 73.01151 274.0014 71.0114 274.0014 71.02025 275.00145 63.01983 274.9926 63.01098 272.9925 62.01093 273.00135 62.01093 274.0014 60.00198 274.0014 60.01968 275.00145 54.01998 275.01833 54.01516 273.99618 53.01327 273.99867 50.00456 274.00406 50.01797 274.98291 47.01522 275.00765 47.01522 273.99893 39.01753 273.99893 39.01753 272.99822 37.0081 272.99022 37.02412 273.98292 34.00597 273.98292 34.00597 272.99022 25.00757 272.99822 25.00681 271.99355 21.00881 272.00354 21.00881 271.00404 18.01031 271.01404 18.01031 269.99454 14.0123 269.99454 14.0123 268.99504 13.0128 268.99504 13.00281 267.99554 11.0038 267.99554 11.01463 266.99379 10.01535 266.99379 10.01535 265.99664 9.01247 265.99664 9.01247 264.99949 8.01531 264.99376 8.01531 264.00233 7.02614 264.01278 7.02614 263.03232 6.00242 263.00349 6.00242 261.99419 5.00755 261.99419 5.00755 260.99931 3.99825 261.01373 3.99825 259.99001 3.03221 260.00443 3.03221 255.96725 2.03733 255.98167 2.03733 255.01562 1.01361 255.01562 1.01361 248.00465 0 248.00465 0 246.00041 .98247 246.00041 1.00212 243.99616 2.00424 243.99616 1.98136 231.98119 .99587 231.98119 .99587 226.00026 1.98136 226.00026 1.99525 225.00608 2.97339 225.00608 3.01404 189.99948 3.98873 189.97681 4.01715 187.98726 2.99395 187.98726 3.02237 183.95131 4.01715 183.95131 4.01715 181.96175 4.98351 181.96175 5.00639 179.97956 6.00122 179.97956 6.03136 178.9998 7.0262 178.9998 8.31096 178.3846"/>
    <polygon id="_Foxing2_" data-name="&amp;lt;Foxing2&amp;gt;" class="cls-3" points="60.96614 82.08388 69.02289 82.19425 108.31567 91.52336 132.7999 96.62425 168.65041 103.76548 186.61337 107.03018 203.86517 109.97136 223.6374 112.99545 223.6374 111.98138 224.20922 111.04303 225.03718 110.04947 227.07949 108.17275 228.62502 106.68242 230.17055 105.19209 231.71609 103.97774 233.37201 102.21142 234.3918 101.03161 236.03579 99.07447 237.71892 97.19563 239.59777 95.23849 241.18328 93.38463 242.24285 92.00472 243.62276 90.13198 244.97803 88.13603 246.54087 86.03972 247.72599 84.51712 248.84092 83.08364 249.95584 81.41126 251.23004 79.22123 252.54405 77.2303 253.97753 75.11991 255.10978 73.72472 256.04224 72.15649 257.05947 70.20679 258.28863 68.29949 259.60255 65.96833 260.61978 63.93004 261.31554 62.89396 261.84224 61.99857 263.02936 60.34011 264.0139 58.84507 265.1443 56.54781 266.09747 54.44363 266.98839 52.81028 267.95356 50.95419 268.62175 49.32083 269.14145 48.13294 269.14145 46.97657 268.55726 46.00988 268.09936 46.00988 266.8976 46.00988 264.85187 45.56646 260.12021 43.46498 255.90598 41.35787 250.93535 39.08866 245.04623 36.11709 242.01321 34.28332 238.99044 32.88307 235.9232 31.06051 233.0559 29.7431 229.95612 27.96072 227.01132 26.02336 223.98903 24.08599 220.90446 23.33263 219.1116 22.96674 218.59936 23.95464 217.90417 25.01571 217.13581 25.78408 216.14791 27.0281 214.98389 29.00029 213.38113 31.0962 211.03863 33.45925 209.06601 35.96613 207.69407 37.98792 205.99721 40.04582 204.29765 42.07222 203.00345 43.57181 202.05582 44.82268 201.07028 45.84612 199.97103 46.98328 199.0613 47.89301 198.15158 48.91645 196.71118 50.43266 195.23287 51.91097 194.09571 52.93441 192.08673 54.94339 190.03985 56.95237 188.10668 58.84763 186.96952 60.0227 186.0977 60.85661 184.08872 61.91796 182.95156 63.09303 181.92812 63.93004 180.82886 64.57133 179.76752 65.10201 177.94806 66.65612 176.46976 67.79328 175.06726 68.81672 173.09619 70.02969 170.17748 71.62171 168.13059 72.91049 166.0458 73.93394 163.1271 75.37434 161.91413 75.94292 159.60191 77.11798 157.89617 78.14142 156.03881 79.01324 153.27172 79.92297 149.98833 79.98007 149.92641 80.90889 146.9542 81.15657 146.9542 81.8377 142.92934 82.02347 142.92934 82.82844 136.98492 83.0142 133.88887 83.07612 133.88887 84.00494 115.1204 83.92522 114.93373 82.99185 105.91115 82.99185 105.84893 81.99625 99.81314 81.99625 99.81314 81.00066 94.04362 80.04271 93.94251 79.08217 89.03869 78.9305 88.88703 78.07107 84.03376 77.86885 83.93265 75.18944 81.10959 73.98517 79.87736 72.9475 79.03425 71.97468 78.84213 70.96961 78.84213 70.00144 77.14785 70.00144 77.02683 70.96961 75.10321 73.05243 72.0121 75.02301 70.04152 76.45265 67.99367 77.9982 66.06173 78.96417 64.20706 79.81422 60.96614 82.08388"/>
    <polygon id="_Tip_" data-name="&amp;lt;Tip&amp;gt;" class="cls-3" points="382.09467 110.94353 382.09467 112.99545 381.85575 114.52731 380.81327 117.4231 379.53912 120.08722 377.22249 123.33051 375.36919 125.76297 373.28422 127.96377 369.80928 131.67037 367.23225 133.9284 363.74092 136.81255 359.946 139.84848 355.54388 143.26392 350.45869 146.90704 347.19505 150.13032 343.09653 153.43431 338.99802 157.22924 335.50727 160.79646 332.01536 164.43959 328.7254 167.86663 326.12086 171.56782 322.55674 176.36567 319.67803 181.98601 317.48473 187.1951 315.28766 191.54481 313.60035 196.01985 312.99624 199.15345 328.0096 201.98868 329.97878 202.48941 344.36946 204.5926 356.29766 206.46455 374.32226 208.89049 385.74593 210.2944 397.25287 211.62138 406.78258 212.59804 418.00844 213.66149 423.29359 214.19441 427.37745 214.36282 452.34338 214.36282 480.09956 213.86755 512.39189 212.59101 542.05483 210.1512 568.13159 207.66409 590.3747 205.51929 611.60605 204.47307 623.31328 203.41695 627.18085 202.17665 629.86499 200.85583 630.426 200.24973 630.01012 199.98971 629.06187 200.0176 629.00609 199.06935 628.00206 199.01357 628.02995 197.0055 626.99802 196.97761 626.99802 192.98937 625.99399 192.98937 625.9661 189.0569 625.01785 189.0569 624.98996 186.07269 623.95803 185.98902 624.0159 182.97976 622.85849 182.97976 623.03211 179.91263 621.8747 179.9705 621.8747 177.94503 621.08133 176.97692 620.99172 174.94576 619.97614 174.94576 619.97614 174.07953 618.99043 174.01979 618.99043 171.95876 617.97485 171.98863 615.86262 169.32567 613.03346 166.99284 611.91467 165.75832 609.51296 164.27584 607.00901 163.4049 605.376 163.29603 605.0494 164.27584 604.7228 165.69111 603.19866 166.45319 599.60603 167.43299 595.15918 168.8982 590.74079 170.06349 569.86856 170.95718 556.07354 171.44736 540.17776 171.65744 495.85706 170.91012 471.71112 170.04031 454.45667 168.85992 446.31422 168.16017 443.19719 167.65127 437.72648 165.74288 432.21076 160.99208 427.06418 155.84549 425.08845 153.02356 424.86026 148.41409 425.43173 141.80134 426.43114 134.80545 426.93085 129.55853 427.33862 126.19639 427.74438 124.1366 427.17475 122.99734 425.83612 122.02896 422.81915 120.92876 418.99462 119.35703 415.79947 118.01624 411.57175 116.29384 407.6572 115.04118 404.03401 113.98287 400.98927 112.99545 397.49106 112.1042 394.5111 111.3916 392.0494 110.94353 389.32857 110.48466 387.12599 110.03119 385.18254 109.57772 384.01647 109.57772 382.97996 109.57772 382.33215 110.09597 382.09467 110.94353"/>
    <polygon id="_Quarter_" data-name="&amp;lt;Quarter&amp;gt;" class="cls-4" points="197.50314 137.38939 195.65163 139.39326 194.33968 141.39243 192.97324 143.47461 190.54433 147.17582 188.95628 150.13032 187.36324 153.09412 185.31542 156.90401 182.70602 161.65812 180.87693 164.99058 175.75257 176.40503 174.86269 179.86567 173.98444 185.17367 173.98444 188.13648 198.06053 188.13648 209.24759 189.05754 214.23727 189.80366 219.27357 190.40988 223.23733 190.87621 227.99383 191.156 234.10268 191.156 235.53411 191.29198 236.81965 191.48481 238.20161 191.77406 240.93338 192.09545 244.5329 192.28828 247.67781 192.5365 252.92558 193.12553 259.03014 193.44683 266.80415 194.18735 272.86046 194.6403 275.31088 194.91962 278.04062 195.12277 282.52202 195.61647 284.12986 195.91124 286.72919 196.20601 298.49497 198.00949 301.99199 198.30246 310.91647 198.78055 312.99624 199.15345 313.60035 196.01985 315.28766 191.54481 317.48473 187.1951 319.67803 181.98601 322.55674 176.36567 328.7254 167.86663 332.01536 164.43959 335.50727 160.79646 338.99802 157.22924 343.09653 153.43431 347.19505 150.13032 350.45869 146.90704 355.54388 143.26392 359.946 139.84848 363.74092 136.81255 367.23225 133.9284 369.80928 131.67037 375.36919 125.76297 377.22249 123.33051 379.53912 120.08722 380.81327 117.4231 381.85575 114.52731 382.09467 112.99545 382.09467 110.94353 382.33215 110.09597 382.97996 109.57772 382.3999 109.33242 381.98483 108.98954 381.67804 108.75493 381.22688 108.37596 380.81182 107.90675 380.34261 107.54582 379.62064 107.23404 379.22114 107.03429 378.66184 106.71469 378.14249 106.43504 377.3435 106.15539 376.74425 105.91569 376.10505 105.55614 375.54575 105.23655 374.90655 104.877 374.1475 104.27775 373.54825 103.8383 372.74926 103.1991 371.95026 102.59985 371.19121 102.12045 370.27236 101.40135 369.55326 101.00185 368.75426 100.56241 368.07512 100.00311 367.58008 99.20742 367.19035 98.9909 366.67071 98.51457 366.00159 98.0267 365.3383 97.44632 364.84082 96.94884 363.98406 96.36846 362.56183 95.05702 361.19817 94.27779 359.96438 93.36868 358.01629 92.00502 356.32794 91.03097 354.57466 89.99199 353.14606 89.21275 351.63225 88.57416 350.25722 87.94643 348.70284 87.43827 346.84954 86.90021 344.7338 86.39055 343.56707 86.16096 342.11853 85.65955 340.61427 85.15813 339.33287 84.76813 337.88433 84.04386 336.54721 83.26388 334.87581 82.59532 333.33899 82.06447 331.61992 81.62441 329.99336 81.01725 327.98071 80.03816 326.07028 78.91682 323.57842 77.5463 321.91718 76.30037 320.17287 75.0129 318.5135 73.69923 316.85413 72.31642 314.39879 70.43777 312.49756 68.68664 309.55641 66.48118 307.74486 65.03898 305.39752 63.52565 302.92664 61.57974 300.20866 59.72658 297.12006 57.74987 294.03146 56.26734 291.18994 54.90836 287.97779 53.30228 284.39501 51.69621 280.4416 49.96659 276.73527 48.85469 274.51148 47.98988 271.90759 47.12766 270.51286 46.61626 268.55726 46.00988 269.14145 46.97657 269.14145 48.13294 268.62175 49.32083 264.0139 58.84507 260.61978 63.93004 258.46809 67.98109 257.05947 70.20679 255.10978 73.72472 253.97753 75.11991 251.23004 79.22123 249.95584 81.41126 248.84092 83.08364 246.54087 86.03972 244.97803 88.13603 242.24285 92.00472 239.59777 95.23849 237.71892 97.19563 236.03579 99.07447 234.3918 101.03161 233.37201 102.21142 231.71609 103.97774 230.17055 105.19209 228.62502 106.68242 227.07949 108.17275 225.03718 110.04947 224.20922 111.04303 223.6374 111.98138 223.6374 112.99545 242.12444 115.11571 246.08114 115.37098 250.16546 115.49861 253.22871 115.62625 256.16432 115.62625 259.48284 115.49861 263.18426 115.24334 266.75805 114.34989 273.65036 111.54192 276.96887 109.75502 279.26631 107.84049 281.30847 105.79833 283.09537 103.37326 284.87674 100.00496 285.99633 97.39257 287.11593 94.03379 287.90032 90.0749 288.0536 87.65088 288.09969 84.23789 287.3899 79.14794 286.69726 75.88562 286.00438 72.37176 284.98857 67.8692 283.46081 63.93004 284.68293 64.5459 288.04836 66.25814 292.4175 68.85601 295.01537 70.5092 299.26302 73.38763 303.28731 76.4941 307.1704 79.38876 312.88912 83.55425 316.12593 86.08423 318.47269 88.19317 320.43875 90.16972 322.31617 92.26544 323.93381 94.13584 326.77162 97.90889 328.89768 101.05369 330.08554 103.12338 331.29736 105.0623 332.41224 107.04969 333.22965 108.85413 334.20723 111.09631 334.90254 112.99545 335.29985 115.06948 335.50727 117.43976 335.50727 120.33249 335.50727 123.31289 335.06393 126.78183 334.1294 129.85245 331.45788 135.66908 323.65835 143.5726 313.88294 147.83635 304.00353 149.70823 294.85217 150.13032 283.24479 150.13032 264.67298 149.28615 235.549 145.48737 197.50314 137.38939"/>
    <polygon id="_Laces_" data-name="&amp;lt;Laces&amp;gt;" class="cls-5" points="286.81552 0 286.81552 .81626 283.38724 .81626 282.32611 .81626 281.91798 0 278.43529 0 276.55956 .40813 274.06236 1.09528 271.24038 2.09663 267.34608 4.00979 264.10508 6.15178 261.05021 8.9738 259.15762 10.80109 256.94646 12.94624 255.1195 14.65725 253.64487 16.13188 252.19347 17.66865 251.9557 19.44111 251.9557 21.30217 251.9557 23.95765 253.00802 23.95765 253.00802 24.9618 254.0279 24.9618 254.0175 26.0025 255.02697 26.0025 255.01657 26.98075 261.04373 26.98075 261.01477 28.00457 264.99618 28.00457 264.99618 26.97088 267.06151 26.94905 267.03969 25.98886 269.04738 25.98886 269.00953 24.06175 271.04409 24.03183 271.60528 22.01744 272.8929 21.98818 273.6245 20.11527 274.8408 18.85233 276.45484 17.5073 278.4822 16.82069 279.98079 15.86107 282.40805 14.50632 283.81925 13.43381 285.174 12.53064 287.13114 12.04955 288.73609 12.08444 290.20148 12.32867 290.96906 12.81714 290.96906 19.76029 290.1317 19.93475 290.06192 25.90098 289.32992 29.13542 287.40629 30.22054 286.27184 31.84823 285.63063 33.47592 284.98942 35.20225 285.00912 38.01276 285.98811 38.01276 285.98811 40.02667 287.00905 40.02667 287.00905 41.00566 288.03 41.00566 288.03 41.95667 290.00196 41.95667 294.97128 41.95667 298.1514 41.24405 299.40326 40.54301 300.25452 39.44138 300.80534 38.43989 301.35616 37.18803 301.95705 35.98625 302.75824 34.58417 303.32915 33.37085 303.65044 32.19927 304.20184 30.6195 304.50459 29.16631 304.50459 28.07643 304.50459 26.92599 304.50459 25.59391 304.50459 24.62512 304.50459 23.29304 305.41283 23.71688 306.01832 24.56457 307.4715 25.65446 308.62194 26.5627 309.65127 27.28929 310.31731 27.95533 311.22555 28.62137 311.7705 29.40851 311.7705 30.86169 311.7705 32.98092 311.7705 35.10014 311.7705 38.1276 311.7705 41.51836 311.7705 42.85044 311.7705 45.57515 312.07324 49.08701 312.73928 49.08701 313.06589 50.0558 313.90805 50.0558 313.90805 50.98661 314.92751 50.98661 314.92751 51.87309 320.06911 51.87309 320.06911 53.02552 323.17181 53.02552 323.17181 52.13903 324.05829 52.05039 324.05829 51.1639 324.90045 51.03093 325.7872 48.92066 326.68346 46.70988 326.68346 44.85761 326.68346 43.5431 326.68346 42.76634 326.92247 41.87007 328.05773 42.22858 328.83449 42.82609 329.85025 43.36384 330.74652 44.20035 331.16477 44.79786 332.12078 45.51487 333.19002 46.00988 334.04566 46.85431 334.65683 47.6692 335.59396 48.28037 336.47868 48.76748 336.86955 49.06215 337.0603 49.49568 337.0603 50.37291 336.88047 52.00054 336.01273 53.91385 335.26816 55.17192 334.70331 57.09754 334.29251 57.99616 334.06143 59.87043 334.05931 64.93095 334.97455 64.93095 334.97455 65.9606 337.0603 66.44018 337.0603 67.07372 337.40057 68.1296 338.00394 68.97432 339.02966 69.96987 340.9435 70.95172 342.93498 71.50491 344.02753 72.00278 344.02753 72.92843 345.00341 72.92843 347.01282 72.92843 347.01282 72.00836 348.04292 71.9311 348.17168 70.95251 348.17168 70.06483 348.69925 69.07675 349.56065 68.038 349.86467 67.10059 350.06789 66.03604 350.613 65.01733 351.12139 62.71134 351.46252 61.00567 351.63309 59.36822 351.63309 57.98057 351.63309 56.36165 351.63309 54.66563 353.86874 54.28018 355.02512 54.35727 356.49146 54.85739 358.00162 55.42726 359.28383 56.1396 359.99617 56.65248 360.68001 57.76373 361.33544 60.09834 361.62573 62.23925 361.80716 64.34388 361.9886 66.30336 361.9886 68.22655 361.9886 72.92843 363.09549 72.92843 363.09549 75.94494 363.99283 75.94494 363.99283 77.93694 366.09169 77.93694 366.09169 78.83278 366.93483 78.83278 366.93483 79.78132 369.04269 79.78132 369.04269 80.99334 372.09909 80.99334 373.01027 79.95234 374.03115 79.17167 375.02201 78.12075 376.07293 76.94974 376.97371 76.6795 376.97371 75.8688 376.97371 70.41799 376.97371 67.1175 376.14505 65.91732 378.06533 66.99748 379.74559 67.89762 380.94577 69.1578 381.90591 70.11795 381.90591 77.97718 382.67668 79.13949 382.97996 83.25006 383.39783 87.00005 384.04687 87.93755 384.69591 87.93755 385.34495 88.80294 386.13822 90.75005 386.85937 91.18274 386.85937 92.19236 387.9411 92.19236 387.9411 93.20197 388.8786 93.20197 388.8786 94.06736 389.8161 94.06736 389.8161 95.36543 391.11417 95.36543 391.11417 96.08658 391.94623 96.87525 395.00679 96.99002 396.05886 96.07185 397.01529 95.28758 398.9664 94.10161 399.75255 93.51645 400.10792 92.39958 400.10792 90.62274 400.10792 89.09974 400.10792 86.61216 400.10792 84.32765 400.10792 81.02261 405.08307 81.08949 407.73668 82.08654 409.53803 84.21541 410.88315 86.11913 411.91646 88.65814 413.19487 91.80815 414.29537 94.53739 415.35186 97.75085 416.71648 100.78824 418.28917 102.33236 420.32412 103.7859 422.48035 105.05808 425.51715 105.97748 427.96888 105.36454 429.30619 104.02724 430.11598 101.82362 430.11598 99.76217 430.11598 97.20314 429.68947 95.28386 429.26296 94.00434 428.76537 92.51157 430.46785 92.86254 432.332 93.60044 434.46802 94.18299 436.91472 94.99856 438.50702 96.04715 440.41002 97.36759 441.74875 98.76937 443.38868 100.29096 444.00761 102.14775 444.00761 103.65087 444.8996 104.15605 445.80413 105.06057 447.1198 105.97748 448.02433 105.97748 448.02433 105.30726 448.02433 103.66267 449.09331 103.00483 449.09331 104.5672 449.09331 106.45848 448.18878 107.363 448.02433 108.92536 447.38333 110.90489 447.04873 112.99545 446.48572 114.96842 446.14474 116.87788 446.00835 118.92374 446.00205 120.7752 447.10951 120.7752 447.10951 121.88266 447.95217 122.97213 449.09331 123.44589 449.09331 124.0973 449.96563 124.0973 451.03158 124.0973 451.03158 124.86715 454.1702 124.86715 454.91218 124.86715 455.14019 125.88562 456.18904 125.88562 458.05873 125.5664 459.83721 125.11038 460.84046 124.15273 461.52449 123.05828 462.25412 121.96383 462.98376 120.96058 463.94529 119.54326 464.56877 118.06958 464.99387 116.99266 464.99387 109.99504 464.00741 109.99504 464.00114 109.00425 463.01017 108.99915 463.00502 107.99424 461.00103 107.99989 461.01145 106.98893 460.01539 106.99052 460.01249 105.99819 458.00995 105.9927 458.01924 104.99374 456.01273 104.99586 456.00801 103.99766 454.01162 104.00007 453.9325 103.04366 452.94923 103.00269 452.90826 102.06039 449.99941 102.06039 449.05711 101.93748 447.90996 103.00269 447.41833 103.78112 447.4593 105.58378 446.02536 104.60051 445.2879 103.82209 444.42754 103.20754 444.38657 102.01942 443.637 100.20771 441.96984 98.64098 441.98155 96.99121 440.98457 96.99121 440.98457 95.98192 439.94723 95.93287 439.90607 94.98616 439.04168 94.945 438.9182 93.95714 435.9546 93.9983 435.87228 93.01043 431.96197 93.01043 431.92081 92.06373 428.05166 91.9814 428.0105 90.98757 426.98983 90.96997 426.98983 90.01969 426.00435 89.9845 425.9918 89.00278 425.04274 88.97217 424.98151 88.05373 423.94061 88.02311 423.94061 86.98221 422.99155 86.98221 422.93032 86.03316 421.008 85.98349 420.97286 85.01115 420.00052 85.01115 420.00052 83.99196 418.0035 83.99469 418.00716 82.99223 416.00956 82.99589 416.01322 81.99343 414.01302 81.99238 414.01471 80.99676 411.01904 80.99235 411.02649 79.9937 408.01508 79.99369 408.0207 78.99468 398.01696 78.99151 398.01453 77.99625 397.01394 77.99536 397.01427 75.99259 396.00966 75.99671 396.00966 74.99738 395.01033 74.99738 395.01033 73.99805 394.00704 74.0008 394.01312 73.00436 392.01376 72.99641 392.01515 71.99699 390.01586 71.99866 390.0154 70.99781 388.00684 70.99781 388.01221 70.0024 386.01112 70.00494 386.00212 69.00579 384.00481 69.00119 383.99616 68.0025 382.00938 67.99805 382.0004 67.00103 379.00033 66.99204 379.00033 65.99502 376.01238 65.82331 376.01288 63.9959 375.01616 63.9959 375.01593 62.99505 374.01337 62.99505 374.00673 61.99846 373.00444 61.99846 373.00444 60.99555 370.99988 60.98925 371.00456 59.993 369.00009 59.99878 369.00025 58.99539 367.01286 58.99459 367.00852 57.99695 365.00682 57.99228 365.01617 56.9961 363.01365 56.99424 363.01632 55.99379 361.01374 55.99883 361.01839 54.99847 358.01525 54.98806 358.01525 53.98874 356.01142 53.99395 356.01064 52.99401 350.0153 53.002 350.02489 52.00402 348.01549 51.99563 348.01554 50.9971 346.01445 50.99013 346.01445 49.98851 344.01401 49.98935 344.01627 48.99065 343.01217 48.98931 343.01126 47.98596 340.01513 47.99388 340.01755 46.99413 334.35266 46.98488 334.01044 46.76663 334.01044 46.00988 333.01425 45.88365 333.0155 44.99278 332.01479 44.99536 332.00778 43.99977 331.00518 43.99977 329.99037 42.99131 328.98097 41.99088 327.99817 40.99021 327.99123 38.00846 326.98575 37.9917 327.00251 35.99749 325.99909 36.00339 326.00931 35.00188 325.00859 35.00266 325.01006 33.00075 324.00654 31.97688 324.00654 31.00447 323.01151 30.99316 323.01556 29.9972 322.01101 29.99259 322.0064 28.99264 321.00539 28.98737 321.01594 27.99094 320.02078 27.99094 320.00978 26.9926 318.01038 26.9926 318.01968 25.99755 315.99736 24.99114 314.00021 23.99257 311.94433 22.96463 309.06608 22.02479 307.00866 22.01878 306.05234 20.97029 305.05906 18.91522 304.16853 14.94208 303.00398 10.90043 300.99205 7.32152 298.36788 5.01068 297.44768 3.99362 296.57591 3.07342 295.51041 2.00792 294.44491 1.08772 292.07176 0 286.81552 0"/>
    <polygon id="_Heel_" data-name="&amp;lt;Heel&amp;gt;" class="cls-1" points="31.91532 20.08924 30.31535 21.54377 29.15173 24.1619 27.84266 26.92549 26.96995 28.96182 25.95178 30.8527 25.12009 33.12401 24.20509 37.92774 23.83477 42.97067 23.10125 47.96782 22.7118 52.04131 22.10588 57.05388 21.33472 60.96478 20.97811 64.2434 20.19149 68.86477 19.06073 73.97778 18.06813 76.97381 17.12469 80.94973 16.4054 84.01899 15.78473 87.86943 15.19405 89.97954 14.73418 92.08525 14.08069 95.03807 13.71763 96.95015 13.71763 99.06183 13.11649 101.024 13.11649 102.98617 12.00744 102.98617 12.00744 108.01956 11.98705 115.00899 13.86153 114.48773 16.24418 111.43496 18.36623 109.01508 22.7071 102.7814 26.15536 97.30684 29.78401 94.07515 32.10689 91.86031 37.71946 89.29994 40.21727 87.2711 42.20386 86.6089 44.52155 86.05707 47.50144 85.39487 50.5917 84.84304 53.68196 84.07047 56.88259 83.07718 60.96614 82.08388 64.20706 79.81422 67.99367 77.9982 72.0121 75.02301 75.10321 73.05243 77.02683 70.96961 77.14785 70.00144 75.30331 70.97359 73.04582 71.02865 71.05823 70.95052 70.064 70.95052 69.98752 70.10924 68.94446 69.07272 68.01509 67.98109 66.00506 67.98109 66.01625 66.97943 64.04968 66.93846 64.07016 66.01664 63.08688 65.97567 62.74409 65.00975 61.88735 64.93197 61.94901 63.93004 60.96614 63.93004 60.96614 63.01622 60.01054 63.00272 59.96986 62.02682 59.02499 61.97958 59.01756 60.96882 58.07718 60.92508 56.07417 60.91685 55.95948 59.9993 54.06704 59.9993 53.95235 57.01728 50.97033 57.01728 50.90062 54.92588 49.08807 54.9956 49.00914 50.82179 47.95459 50.8877 47.95459 48.97633 45.91139 48.91042 45.84548 46.0104 44.98866 46.07631 44.92275 45.02176 43.93411 44.88994 43.93411 41.98992 42.81365 41.92401 42.88835 38.03963 41.99195 38.03963 42.06665 35.87334 40.98743 35.93995 40.94224 33.09246 39.03782 33.02626 38.97386 30.97952 38.01445 30.97952 38.01445 29.06071 36.99109 28.93278 36.86317 26.95001 36.09564 26.95001 35.96772 25.03119 34.03691 25.02985 34.07212 22.98972 32.94594 22.98972 33.0961 21.93862 31.91532 20.08924"/>
    <polygon id="_vamp_" data-name="&amp;lt;vamp&amp;gt;" class="cls-1" points="427.17475 122.99734 427.74438 124.1366 427.33862 126.19639 426.93085 129.55853 426.43114 134.80545 425.43173 141.80134 424.86026 148.41409 425.08845 153.02356 427.06418 155.84549 432.21076 160.99208 437.72648 165.74288 443.19719 167.65127 446.31422 168.16017 454.45667 168.85992 471.71112 170.04031 495.85706 170.91012 540.17776 171.65744 556.07354 171.44736 569.86856 170.95718 590.74079 170.06349 603.19866 166.45319 604.7228 165.69111 605.376 163.29603 605.13431 161.97027 602.00797 161.97027 601.9199 161.04219 599.93842 160.99815 599.89439 159.98539 596.01949 159.98539 595.93142 159.0607 591.92443 159.01667 591.8804 158.00391 585.97998 158.00391 585.89192 157.03519 578.99504 156.98543 579.00964 155.99252 573.98669 155.99252 573.98669 155.01422 568.97833 154.99961 568.99293 153.9775 563.99918 154.0067 563.99918 152.96999 559.99834 152.98459 559.99834 152.02089 556.9612 151.99168 556.9904 151.02798 552.98956 150.99877 553.01876 150.00586 550.01083 149.99126 549.98163 148.99835 547.0029 149.01295 546.98378 148.00556 544.00104 148.0207 543.9859 147.00626 542.00245 147.00626 542.01759 145.99183 538.98943 145.99183 538.97429 145.02282 535.9764 144.99253 535.99155 143.99324 533.0088 143.99324 533.0088 143.00909 530.96479 142.99395 529.99578 141.99465 527.98205 141.99465 527.98205 140.99536 524.98417 140.99536 524.98417 139.99606 522.97044 140.01121 521.95601 138.99677 520.01798 138.99677 519.00864 138.00816 516.97688 138.00816 516.99227 136.99228 514.9759 137.00767 514.02159 136.00718 512.00522 136.02257 511.98983 135.02208 509.90008 134.99023 508.99652 133.99852 506.99106 134.02056 506.96903 132.98477 505.00764 133.00681 503.9939 131.97102 502.03251 131.99306 502.03251 131.02339 499.98298 131.02339 498.99127 130.03168 497.02989 130.00964 496.03818 128.99589 493.98272 128.99298 493.98272 128.03778 492.0465 128.01197 492.02069 127.03095 490.95967 127.01862 490.06999 128.01951 490.07943 130.99903 489.0345 130.99903 489.0345 132.00424 488.03154 133.0072 488.03154 133.95594 487.02858 133.98305 487.05569 134.9589 485.99852 134.986 486.02563 135.93475 485.02267 135.93475 484.07393 136.96481 482.04091 136.96481 482.06801 137.91355 479.91834 138.02761 479.2333 138.89948 466.96487 139.02403 466.03072 138.15217 462.97919 137.90306 462.04504 137.03119 460.11448 136.96892 459.92765 136.09705 457.06294 135.9725 456.87611 135.03835 454.94554 134.9138 454.82099 133.97965 453.01498 133.97965 452.82815 133.04551 450.77303 132.98323 450.02572 131.92454 448.03287 131.98681 447.99748 131.0048 446.03808 131.04479 445.07019 129.92258 443.06559 129.92258 442.97447 129.0114 441.01543 129.0114 440.01313 127.96354 438.91971 127.91798 438.05409 127.05236 435.95837 127.0068 435.01749 126.0045 432.99906 126.00797 432.99906 125.01762 429.00936 124.96103 428.0473 123.99897 427.96242 122.99734 427.17475 122.99734"/>
  </g>
</svg>