<?xml version="1.0" encoding="UTF-8"?><svg id="Layer_1" xmlns="http://www.w3.org/2000/svg" viewBox="0 0 1920 1080"><defs><style>.cls-1{fill:#0081c6;opacity:.25;}</style></defs><polygon id="_Laces_" class="cls-1" points="931.18021 476.47435 931.18021 477.29061 927.75193 477.29061 926.6908 477.29061 926.28267 476.47435 922.79998 476.47435 920.92425 476.88248 918.42705 477.56964 915.60507 478.57098 911.71077 480.48415 908.46977 482.62613 905.4149 485.44815 903.52231 487.27544 901.31115 489.42059 899.48419 491.1316 898.00956 492.60623 896.55816 494.143 896.32039 495.91546 896.32039 497.77652 896.32039 500.432 897.37271 500.432 897.37271 501.43615 898.39259 501.43615 898.38219 502.47685 899.39166 502.47685 899.38126 503.4551 905.40842 503.4551 905.37946 504.47892 909.36087 504.47892 909.36087 503.44523 911.4262 503.4234 911.40438 502.46321 913.41207 502.46321 913.37422 500.5361 915.40878 500.50618 915.96997 498.49179 917.25759 498.46253 917.98919 496.58962 919.20549 495.32669 920.81953 493.98165 922.84689 493.29504 924.34548 492.33542 926.77274 490.98067 928.18394 489.90816 929.53869 489.005 931.49583 488.5239 933.10078 488.55879 934.56617 488.80302 935.33375 489.29149 935.33375 496.23464 934.49639 496.4091 934.42661 502.37533 933.69461 505.60977 931.77098 506.69489 930.63653 508.32258 929.99532 509.95027 929.35411 511.6766 929.37381 514.48711 930.3528 514.48711 930.3528 516.50102 931.37374 516.50102 931.37374 517.48001 932.39469 517.48001 932.39469 518.43102 934.36665 518.43102 939.33597 518.43102 942.51609 517.7184 943.76795 517.01736 944.61921 515.91573 945.17003 514.91424 945.72085 513.66238 946.32174 512.4606 947.12293 511.05852 947.69384 509.8452 948.01513 508.67362 948.56653 507.09385 948.86928 505.64066 948.86928 504.55078 948.86928 503.40034 948.86928 502.06826 948.86928 501.09947 948.86928 499.76739 949.77752 500.19123 950.38301 501.03892 951.83619 502.12881 952.98663 503.03705 954.01596 503.76364 954.682 504.42968 955.59024 505.09572 956.13519 505.88286 956.13519 507.33604 956.13519 509.45527 956.13519 511.57449 956.13519 514.60195 956.13519 517.99271 956.13519 519.32479 956.13519 522.0495 956.43793 525.56136 957.10397 525.56136 957.43058 526.53015 958.27274 526.53015 958.27274 527.46096 959.2922 527.46096 959.2922 528.34744 964.4338 528.34744 964.4338 529.49987 967.5365 529.49987 967.5365 528.61339 968.42298 528.52474 968.42298 527.63825 969.26514 527.50528 970.15189 525.39501 971.04815 523.18423 971.04815 521.33196 971.04815 520.01745 971.04815 519.24069 971.28716 518.34443 972.42242 518.70293 973.19918 519.30044 974.21494 519.83819 975.1112 520.6747 975.52946 521.27221 976.48547 521.98922 977.55471 522.48423 978.41035 523.32866 979.02152 524.14355 979.95865 524.75472 980.84337 525.24183 981.23424 525.5365 981.42499 525.97003 981.42499 526.84726 981.24516 528.47489 980.37742 530.3882 979.63285 531.64627 979.068 533.57189 978.6572 534.47051 978.42612 536.34478 978.424 541.4053 979.33924 541.4053 979.33924 542.43495 981.42499 542.91453 981.42499 543.54807 981.76526 544.60396 982.36863 545.44867 983.39435 546.44422 985.30819 547.42607 987.29967 547.97926 988.39222 548.47713 988.39222 549.40278 989.3681 549.40278 991.37751 549.40278 991.37751 548.48271 992.40761 548.40545 992.53637 547.42686 992.53637 546.53918 993.06394 545.5511 993.92534 544.51235 994.22936 543.57494 994.43258 542.51039 994.97769 541.49168 995.48607 539.18569 995.82721 537.48002 995.99778 535.84257 995.99778 534.45492 995.99778 532.836 995.99778 531.13998 998.23343 530.75453 999.38981 530.83162 1000.85615 531.33174 1002.36631 531.90161 1003.64852 532.61395 1004.36086 533.12683 1005.0447 534.23808 1005.70013 536.57269 1005.99042 538.7136 1006.17185 540.81823 1006.35329 542.77771 1006.35329 544.7009 1006.35329 549.40278 1007.46018 549.40278 1007.46018 552.41929 1008.35752 552.41929 1008.35752 554.41129 1010.45638 554.41129 1010.45638 555.30713 1011.29952 555.30713 1011.29952 556.25567 1013.40738 556.25567 1013.40738 557.46769 1016.46378 557.46769 1017.37496 556.4267 1018.39584 555.64602 1019.3867 554.5951 1020.43762 553.42409 1021.3384 553.15385 1021.3384 552.34315 1021.3384 546.89234 1021.3384 543.59185 1020.50974 542.39167 1022.43002 543.47183 1024.11028 544.37197 1025.31046 545.63215 1026.2706 546.5923 1026.2706 554.45153 1027.04137 555.61384 1027.34465 559.72441 1027.76252 563.4744 1028.41156 564.4119 1029.0606 564.4119 1029.70964 565.27729 1030.50291 567.2244 1031.22406 567.65709 1031.22406 568.66671 1032.30579 568.66671 1032.30579 569.67632 1033.24329 569.67632 1033.24329 570.54171 1034.18079 570.54171 1034.18079 571.83978 1035.47886 571.83978 1035.47886 572.56093 1036.31092 573.3496 1039.37148 573.46438 1040.42355 572.54621 1041.37998 571.76193 1043.33109 570.57596 1044.11724 569.9908 1044.47261 568.87393 1044.47261 567.09709 1044.47261 565.57409 1044.47261 563.08651 1044.47261 560.802 1044.47261 557.49697 1049.44776 557.56384 1052.10137 558.56089 1053.90272 560.68976 1055.24784 562.59348 1056.28115 565.13249 1057.55956 568.2825 1058.66006 571.01174 1059.71655 574.2252 1061.08117 577.26259 1062.65386 578.80671 1064.68881 580.26025 1066.84504 581.53243 1069.88184 582.45183 1072.33357 581.83889 1073.67088 580.50159 1074.48067 578.29797 1074.48067 576.23652 1074.48067 573.67749 1074.05416 571.75821 1073.62765 570.47869 1073.13006 568.98592 1074.83254 569.3369 1076.69669 570.07479 1078.83271 570.65734 1081.27941 571.47291 1082.87171 572.5215 1084.77471 573.84194 1086.11344 575.24372 1087.75337 576.76531 1088.3723 578.6221 1088.3723 580.12522 1089.26429 580.6304 1090.16882 581.53492 1091.48449 582.45183 1092.38901 582.45183 1092.38901 581.78161 1092.38901 580.13702 1093.458 579.47919 1093.458 581.04155 1093.458 582.93283 1092.55347 583.83735 1092.38901 585.39971 1091.74802 587.37924 1091.41342 589.4698 1090.85041 591.44277 1090.50943 593.35224 1090.37304 595.39809 1090.36674 597.24955 1091.4742 597.24955 1091.4742 598.35701 1092.31686 599.44648 1093.458 599.92024 1093.458 600.57165 1094.33032 600.57165 1095.39627 600.57165 1095.39627 601.3415 1098.53489 601.3415 1099.27687 601.3415 1099.50488 602.35997 1100.55373 602.35997 1102.42342 602.04075 1104.2019 601.58473 1105.20515 600.62708 1105.88918 599.53263 1106.61881 598.43818 1107.34845 597.43493 1108.30998 596.01761 1108.93346 594.54393 1109.35856 593.46701 1109.35856 586.46939 1108.3721 586.46939 1108.36583 585.4786 1107.37486 585.4735 1107.36971 584.46859 1105.36572 584.47424 1105.37614 583.46328 1104.38008 583.46487 1104.37718 582.47254 1102.37464 582.46705 1102.38393 581.46809 1100.37742 581.47021 1100.3727 580.47201 1098.37631 580.47442 1098.29719 579.51801 1097.31392 579.47704 1097.27295 578.53474 1094.3641 578.53474 1093.4218 578.41183 1092.27465 579.47704 1091.78302 580.25547 1091.82399 582.05813 1090.39005 581.07486 1089.65259 580.29644 1088.79223 579.68189 1088.75126 578.49377 1088.00169 576.68206 1086.33453 575.11533 1086.34624 573.46556 1085.34926 573.46556 1085.34926 572.45627 1084.31192 572.40722 1084.27076 571.46051 1083.40637 571.41935 1083.28289 570.43149 1080.31929 570.47265 1080.23697 569.48478 1076.32666 569.48478 1076.2855 568.53808 1072.41635 568.45575 1072.37519 567.46192 1071.35452 567.44432 1071.35452 566.49404 1070.36904 566.45885 1070.35649 565.47713 1069.40743 565.44652 1069.3462 564.52808 1068.3053 564.49746 1068.3053 563.45656 1067.35624 563.45656 1067.29501 562.50751 1065.37269 562.45784 1065.33755 561.48551 1064.36521 561.48551 1064.36521 560.46631 1062.36819 560.46904 1062.37185 559.46658 1060.37425 559.47024 1060.37791 558.46778 1058.37771 558.46673 1058.3794 557.47111 1055.38373 557.4667 1055.39118 556.46805 1052.37977 556.46804 1052.38539 555.46903 1042.38165 555.46586 1042.37922 554.4706 1041.37863 554.46971 1041.37896 552.46694 1040.37435 552.47106 1040.37435 551.47173 1039.37502 551.47173 1039.37502 550.47241 1038.37173 550.47515 1038.37781 549.47871 1036.37845 549.47076 1036.37984 548.47134 1034.38055 548.47301 1034.38009 547.47216 1032.37153 547.47216 1032.3769 546.47675 1030.37581 546.47929 1030.36681 545.48014 1028.3695 545.47554 1028.36085 544.47685 1026.37407 544.47241 1026.36509 543.47538 1023.36502 543.4664 1023.36502 542.46937 1020.37707 542.29766 1020.37757 540.47026 1019.38085 540.47026 1019.38062 539.4694 1018.37806 539.4694 1018.37142 538.47281 1017.36913 538.47281 1017.36913 537.4699 1015.36457 537.4636 1015.36925 536.46735 1013.36478 536.47313 1013.36494 535.46974 1011.37755 535.46894 1011.37321 534.4713 1009.37151 534.46663 1009.38086 533.47045 1007.37834 533.46859 1007.38101 532.46814 1005.37843 532.47318 1005.38308 531.47282 1002.37994 531.46241 1002.37994 530.46309 1000.37611 530.4683 1000.37533 529.46836 994.37999 529.47635 994.38958 528.47837 992.38018 528.46998 992.38023 527.47145 990.37914 527.46448 990.37914 526.46286 988.3787 526.46371 988.38096 525.465 987.37686 525.46366 987.37595 524.46031 984.37982 524.46823 984.38224 523.46848 978.71735 523.45923 978.37513 523.24098 978.37513 522.48423 977.37894 522.358 977.38019 521.46713 976.37948 521.46971 976.37247 520.47412 975.36987 520.47412 974.35506 519.46566 973.34566 518.46523 972.36286 517.46457 972.35592 514.48281 971.35044 514.46605 971.3672 512.47185 970.36378 512.47774 970.374 511.47624 969.37328 511.47701 969.37475 509.4751 968.37123 508.45123 968.37123 507.47882 967.3762 507.46751 967.38025 506.47155 966.3757 506.46694 966.37109 505.46699 965.37008 505.46172 965.38063 504.46529 964.38547 504.46529 964.37447 503.46695 962.37507 503.46695 962.38437 502.4719 960.36205 501.46549 958.3649 500.46692 956.30902 499.43898 953.43077 498.49914 951.37335 498.49313 950.41703 497.44464 949.42375 495.38957 948.53322 491.41643 947.36867 487.37478 945.35674 483.79587 942.73257 481.48503 941.81237 480.46797 940.9406 479.54777 939.8751 478.48227 938.8096 477.56207 936.43645 476.47435 931.18021 476.47435"/></svg>