<svg id="product-svg" data-name="Layer 1" xmlns="http://www.w3.org/2000/svg" xmlns:xlink="http://www.w3.org/1999/xlink" viewBox="0 0 1920 1080">
    <path id="product-shape" style="fill:#2aa2ff" d="m681.22 566.86 7.58 3.79 6.67 2.74 6.66 2.62 7.41 2.75 5.64 1.98 6.87 2.26 7.63 2.54 6.68 2.07 6.4 1.86 6.59 2 6.68 2.07 6.97 2.16 6.02 1.7 4.8 1.31 5.18 1.23 5.27 1.22 6.02 1.41 5.74 1.41 6.4 1.6 6.78 1.6 6.77 1.79 6.78 1.79 4.46 1 3.74.81 3.67.8 4.14.94 4.34.97 4.51.97 4.74 1.03 5.09 1.02 4.46.86 4.03.75 3.78.74 4.64.93 4.65.87 4.21.68 3.9.55 3.9.5 3.84.5 4.07.47 4.47.48 4.27.38 3.73.34 2.6.24 2.39.19 2.15.13 2.48.1h24.69l1.14-.07 1.01-.09.93-.11.78-.12.83-.09.89-.11.46-.07.58-.08.65-.11.65-.11.59-.11.5-.09.32-.08.51-.09 1.11-.25 1.32-.29 1.02-.28 1-.29 1.12-.4 1.14-.45 1.12-.46 1.05-.69.65-.38.72-.45.71-.47.69-.45.66-.45.68-.48.69-.53.98-.79 1.18-.99.93-1.02.99-.97.93-1.05.94-1.12.8-.84.94-.9.74-1.09.75-1.02.74-1.06.34-.87.41-.87.18-.68.25-.87.27-.78.15-.68.18-.57.09-.65.11-.87.15-.79.08-.62.07-.4.04-.42v-5.32l-.06-.59-.11-.7-.18-.73-.21-.61-.31-.91-.32-.75-.43-.75-.55-.94-.43-.83-.44-.62-.47-.79-.55-.98-.51-.83-.63-.94-.59-.91-.55-.9-.75-1.14-.55-1.06-.71-1.1-.66-1.18-.55-1.03-1.11-1.39-.92-1.16-1.3-1.39-.86-1.06-1.19-1.26-1.59-1.68-1.06-1.03-1.62-1.49-1.66-1.59-1.72-1.5-1.27-1.09-1.57-1.27-1.7-1.45-1.42-1.17-1.74-1.34-1.85-1.53-1.32-1.14-1.06-.93-1.01-.88-1.1-1.01-1.19-1.01-1.19-1.06-1.14-.88-1.06-.7-1.32-.97-.92-.66-1.32-.8-1.28-.7-1.23-.75-1.28-.75-1.36-.7-1.19-.44-1.15-.44-.92-.31-.97-.3.66 1.34.79 1.44.79 1.5.57 1.5.21 1.65.15 1.5V550.86l.07 1.65-.07 1.65v1.57l-.07 1.29.03 1.79v8.32l-.07 1.86-.07 1.21-.36 1.65-.36 1.79-.43 1.29-1 1.44-1.08 1.43-.86 1.07-1.14 1.39-1.08 1.26-1.08 1.3-.9.99-.99.99-.9.9-1.13.99-1.08.86-1.22.81-1.57 1.11-1.43.82-1.65.48-1.94.29-2.14.2-1.84.19h-1.84l-2.23.1h-1.65l-1.75-.1-1.94-.1-2.13-.09-2.14-.1-2.33-.1-2.23-.1-2.52-.09-2.84-.13-2.91-.2-2.58-.26-2.24-.33-1.82-.3-2.52-.42-2.26-.42-2.31-.46-1.8-.41-3.03-.42-3.05-.4-2.51-.31-2.97-.23-2.43-.08-2.59-.31-2.03-.16-2.27-.24-2.51-.39-1.88-.39-1.8-.39-2.27-.47-2.66-.31-2.35-.33-2.35-.38-2.81-.42-2.93-.59-2.51-.5-2.76-.5-2.84-.67-2.93-.75-2.59-.67-2.85-.67-2.59-.67-2.76-.75-3.75-.8-4.2-.75-5.44-.99-7.92-1.58-8.28-1.58-9.02-1.74-5.86-1.28-8.31-1.66-8.03-1.94-8.04-2.22-7.2-1.94-5.54-1.66-4.99-1.11-2.9-.85-2.17.54-2.17.87-2.17.65-1.84.54-2.5.76-2.16.55-2.29.3-1.76.31-1.76.15H689l-1.14.08-1.15.53-1.22.99-1.3 1.15-1.14 1.07-1.15.76-.68.77z"/>
</svg>